<?xml version="1.0" encoding="UTF-8"?>
<svg width="52px" height="24px" viewBox="0 0 52 24" version="1.1" xmlns="http://www.w3.org/2000/svg" xmlns:xlink="http://www.w3.org/1999/xlink">
    <title>sy_top_logo</title>
    <defs></defs>
    <g id="切图" stroke="none" stroke-width="1" fill="none" fill-rule="evenodd">
        <g id="首页_移动经销店切图" transform="translate(-52.000000, -212.000000)" fill-rule="nonzero">
            <g id="Group" transform="translate(52.000000, 212.000000)">
                <g id="资源-13" transform="translate(0.000000, 1.000000)">
                    <path d="M35.4812288,2.34943798 C34.8941694,0.71662394 33.7377067,0 32.4267547,0 L26,0 C27.4919252,0.349240781 28.414447,1.55117334 28.8867428,2.93906527 C29.500286,4.7533031 35.9491106,23 35.9491106,23 L40.3630905,23 C41.8417737,23 42.3273115,21.7935318 41.784392,20.2786433 C41.3341661,18.9905344 36.0682881,3.97771643 35.4812288,2.34943798 Z" id="Shape" fill="#C70019"></path>
                    <path d="M51.7851347,20.2695721 C51.344086,18.9905344 46.051501,3.97318083 45.4737271,2.34490239 C44.8959533,0.71662394 43.7183531,0 42.4216698,0 L36,0 C37.4951553,0.349240781 38.4257681,1.55117334 38.8668169,2.93906527 C39.4798746,4.7533031 45.9235968,23 45.9235968,23 L50.3340843,23 C51.842471,23 52.3276247,21.7708539 51.7851347,20.2695721 Z" id="Shape" fill="#FFFFFF"></path>
                    <path d="M31.8050837,20.2775695 C31.4623399,19.2974946 26.2908145,4.5373841 25.5359106,2.60445847 C24.7810068,0.671532847 23.041257,0 21.2190752,0 L9.41827894,0 C8.11672053,0 6.99304176,0.716906688 6.41601753,2.35036496 C5.8389933,3.98382324 0.658790814,18.9980272 0.211922425,20.2775695 C-0.321716524,21.7975932 0.155521561,23 1.60892846,23 L3.90400979,23 L10.8022694,2.84947721 L17.9781948,2.84947721 L19.4793255,7.8768988 L14.8371005,7.8768988 L13.9173325,11.6565398 L20.6637436,11.6565398 L22.6290968,18.3990925 L12.3120771,18.3990925 C12.3120771,18.3990925 11.8782243,20.0643125 11.7090218,20.7630696 C11.2751689,22.5371868 12.0777966,22.9637009 13.3836936,22.9637009 L30.6033114,22.9637009 C31.8484689,22.9637009 32.2953373,21.6750838 31.8050837,20.2775695 Z" id="Shape" fill="#C70019"></path>
                </g>
            </g>
        </g>
    </g>
</svg>
